<?xml version="1.0" encoding="utf-8"?>
<svg xmlns="http://www.w3.org/2000/svg" viewBox="215.945 197.898 40.164 31.546" width="40.164px" height="31.546px"><path d="M 256.108 204.443 L 256.108 198.181 L 248.576 202.134 L 248.576 201.9 C 248.576 199.404 246.788 197.898 244.197 197.898 L 220.323 197.898 C 217.595 197.898 215.945 199.404 215.945 201.9 L 215.945 208.21 L 226.49 213.671 L 215.945 219.18 L 215.945 225.489 C 215.945 227.938 217.595 229.444 220.323 229.444 L 244.196 229.444 C 246.785 229.444 248.573 227.938 248.573 225.489 L 248.573 225.16 L 256.105 229.161 L 256.105 222.806 L 238.592 213.671 L 256.109 204.443 L 256.108 204.443 Z M 232.52 216.777 L 245.469 223.559 L 219.52 223.559 L 232.517 216.777 L 232.52 216.777 Z M 245.375 203.784 L 232.518 210.516 L 219.523 203.784 L 245.372 203.784 L 245.375 203.784 Z" fill="#000000" style="" id="object-0"/></svg>