<?xml version="1.0" encoding="utf-8"?>
<svg xmlns="http://www.w3.org/2000/svg" viewBox="195.673 152.681 128 128" width="128px" height="128px"><g id="object-0"><path d="M 195.673 270.013 L 195.673 163.348 C 195.673 157.46 200.451 152.681 206.341 152.681 L 313.005 152.681 C 318.894 152.681 323.673 157.46 323.673 163.348 L 323.673 270.013 C 323.673 275.903 318.894 280.681 313.005 280.681 L 206.341 280.681 C 200.451 280.681 195.673 275.903 195.673 270.013 Z" fill="#406aff" id="path2" style="stroke-width:1.33332"/><path fill="#fbfbfb" d="M 245.497 245.801 L 227.677 184.681 L 240.669 184.681 C 242.449 184.681 244.012 185.86 244.51 187.573 L 258.194 234.869 C 258.279 235.156 258.542 235.348 258.841 235.348 L 260.503 235.348 C 260.801 235.348 261.063 235.156 261.149 234.869 L 274.832 187.573 C 275.33 185.86 276.894 184.681 278.674 184.681 L 291.665 184.681 L 273.843 245.801 C 273.346 247.507 271.779 248.681 270.003 248.681 L 249.34 248.681 C 247.561 248.681 245.996 247.507 245.497 245.801 Z" id="path3" style="stroke-width:1.33332"/></g></svg>